<?xml version="1.0" encoding="UTF-8" standalone="no"?>
<!DOCTYPE svg PUBLIC "-//W3C//DTD SVG 1.1//EN"
 "http://www.w3.org/Graphics/SVG/1.1/DTD/svg11.dtd">
<!-- Generated by graphviz version 2.40.1 (20161225.0304)
 -->
<!-- Title: flowchart Pages: 1 -->
<svg width="329pt" height="557pt"
 viewBox="0.00 0.00 329.44 557.00" xmlns="http://www.w3.org/2000/svg" xmlns:xlink="http://www.w3.org/1999/xlink">
<g id="graph0" class="graph" transform="scale(1 1) rotate(0) translate(4 553)">
<title>flowchart</title>
<polygon fill="#ffffff" stroke="transparent" points="-4,4 -4,-553 325.4423,-553 325.4423,4 -4,4"/>
<g id="clust1" class="cluster">
<title>cluster_imb</title>
<polygon fill="none" stroke="#000000" points="42.2463,-56 42.2463,-505 246.2463,-505 246.2463,-56 42.2463,-56"/>
<text text-anchor="middle" x="144.2463" y="-489.8" font-family="Times,serif" font-size="14.00" fill="#000000">Restoration</text>
</g>
<g id="clust2" class="cluster">
<title>cluster_images</title>
<polygon fill="none" stroke="#000000" points="50.2463,-283 50.2463,-430 238.2463,-430 238.2463,-283 50.2463,-283"/>
<text text-anchor="middle" x="144.2463" y="-414.8" font-family="Times,serif" font-size="14.00" fill="#000000">Process images</text>
</g>
<g id="clust3" class="cluster">
<title>cluster_video</title>
<polygon fill="none" stroke="#000000" points="69.2463,-64 69.2463,-211 183.2463,-211 183.2463,-64 69.2463,-64"/>
<text text-anchor="middle" x="126.2463" y="-195.8" font-family="Times,serif" font-size="14.00" fill="#000000">Process video</text>
</g>
<!-- start -->
<g id="node1" class="node">
<title>start</title>
<ellipse fill="none" stroke="#000000" cx="42.2463" cy="-531" rx="42.4939" ry="18"/>
<text text-anchor="middle" x="42.2463" y="-527.3" font-family="Times,serif" font-size="14.00" fill="#000000"> &#160;&#160;Start &#160;&#160;</text>
</g>
<!-- input -->
<g id="node3" class="node">
<title>input</title>
<polygon fill="none" stroke="#000000" points="144.2463,-549 103.0216,-531 144.2463,-513 185.4709,-531 144.2463,-549"/>
<text text-anchor="middle" x="144.2463" y="-527.3" font-family="Times,serif" font-size="14.00" fill="#000000">Input</text>
</g>
<!-- start&#45;&gt;input -->
<g id="edge9" class="edge">
<title>start&#45;&gt;input</title>
<path fill="none" stroke="#000000" d="M84.8791,-531C87.517,-531 90.1549,-531 92.7928,-531"/>
<polygon fill="#000000" stroke="#000000" points="92.9675,-534.5001 102.9675,-531 92.9675,-527.5001 92.9675,-534.5001"/>
</g>
<!-- end -->
<g id="node2" class="node">
<title>end</title>
<ellipse fill="none" stroke="#000000" cx="277.2463" cy="-18" rx="44.393" ry="18"/>
<text text-anchor="middle" x="277.2463" y="-14.3" font-family="Times,serif" font-size="14.00" fill="#000000"> &#160;&#160;&#160;End &#160;&#160;&#160;</text>
</g>
<!-- extract_frames -->
<g id="node5" class="node">
<title>extract_frames</title>
<polygon fill="none" stroke="#00ff00" stroke-dasharray="5,2" points="192.7463,-474 95.7463,-474 95.7463,-438 192.7463,-438 192.7463,-474"/>
<text text-anchor="middle" x="144.2463" y="-452.3" font-family="Times,serif" font-size="14.00" fill="#000000">Extract frames</text>
</g>
<!-- input&#45;&gt;extract_frames -->
<g id="edge10" class="edge">
<title>input&#45;&gt;extract_frames</title>
<path fill="none" stroke="#000000" d="M144.2463,-512.8446C144.2463,-504.3401 144.2463,-494.0076 144.2463,-484.4964"/>
<polygon fill="#000000" stroke="#000000" points="147.7463,-484.2481 144.2463,-474.2482 140.7463,-484.2482 147.7463,-484.2481"/>
</g>
<!-- output -->
<g id="node4" class="node">
<title>output</title>
<polygon fill="none" stroke="#000000" points="165.2463,-36 115.4769,-18 165.2463,0 215.0156,-18 165.2463,-36"/>
<text text-anchor="middle" x="165.2463" y="-14.3" font-family="Times,serif" font-size="14.00" fill="#000000">Output</text>
</g>
<!-- output&#45;&gt;end -->
<g id="edge11" class="edge">
<title>output&#45;&gt;end</title>
<path fill="none" stroke="#000000" d="M215.1213,-18C217.5783,-18 220.0354,-18 222.4925,-18"/>
<polygon fill="#000000" stroke="#000000" points="222.5939,-21.5001 232.5939,-18 222.5939,-14.5001 222.5939,-21.5001"/>
</g>
<!-- manual_edit_filter -->
<g id="node7" class="node">
<title>manual_edit_filter</title>
<polygon fill="none" stroke="#ff0000" stroke-dasharray="5,2" points="229.7463,-399 58.7463,-399 58.7463,-363 229.7463,-363 229.7463,-399"/>
<text text-anchor="middle" x="144.2463" y="-377.3" font-family="Times,serif" font-size="14.00" fill="#000000">Manually edit each segment</text>
</g>
<!-- extract_frames&#45;&gt;manual_edit_filter -->
<g id="edge1" class="edge">
<title>extract_frames&#45;&gt;manual_edit_filter</title>
<path fill="none" stroke="#000000" d="M144.2463,-437.8446C144.2463,-429.3401 144.2463,-419.0076 144.2463,-409.4964"/>
<polygon fill="#000000" stroke="#000000" points="147.7463,-409.2481 144.2463,-399.2482 140.7463,-409.2482 147.7463,-409.2481"/>
</g>
<!-- recreate_video -->
<g id="node6" class="node">
<title>recreate_video</title>
<polygon fill="none" stroke="#0000ff" stroke-dasharray="5,2" points="193.2463,-255 95.2463,-255 95.2463,-219 193.2463,-219 193.2463,-255"/>
<text text-anchor="middle" x="144.2463" y="-233.3" font-family="Times,serif" font-size="14.00" fill="#000000">Recreate video</text>
</g>
<!-- recreate_video&#45;&gt;output -->
<g id="edge4" class="edge">
<title>recreate_video&#45;&gt;output</title>
<path fill="none" stroke="#000000" d="M181.1426,-218.8304C183.5254,-216.4907 185.6178,-213.8876 187.2463,-211 221.0854,-150.9951 205.1158,-122.5309 187.2463,-56 185.8726,-50.8856 183.6244,-45.7487 181.0775,-40.9781"/>
<polygon fill="#000000" stroke="#000000" points="184.0757,-39.1721 175.963,-32.3579 178.0556,-42.744 184.0757,-39.1721"/>
</g>
<!-- stabilize -->
<g id="node9" class="node">
<title>stabilize</title>
<polygon fill="none" stroke="#ffa500" stroke-dasharray="5,2" points="175.2463,-180 77.2463,-180 77.2463,-144 175.2463,-144 175.2463,-180"/>
<text text-anchor="middle" x="126.2463" y="-158.3" font-family="Times,serif" font-size="14.00" fill="#000000">Stabilize video</text>
</g>
<!-- recreate_video&#45;&gt;stabilize -->
<g id="edge5" class="edge">
<title>recreate_video&#45;&gt;stabilize</title>
<path fill="none" stroke="#000000" stroke-dasharray="5,2" d="M139.889,-218.8446C137.8259,-210.2486 135.3147,-199.7852 133.0118,-190.1899"/>
<polygon fill="#000000" stroke="#000000" points="136.363,-189.1552 130.6258,-180.2482 129.5563,-190.7889 136.363,-189.1552"/>
</g>
<!-- apply_filter -->
<g id="node8" class="node">
<title>apply_filter</title>
<polygon fill="none" stroke="#a020f0" stroke-dasharray="5,2" points="184.2463,-327 104.2463,-327 104.2463,-291 184.2463,-291 184.2463,-327"/>
<text text-anchor="middle" x="144.2463" y="-305.3" font-family="Times,serif" font-size="14.00" fill="#000000">Apply filter</text>
</g>
<!-- manual_edit_filter&#45;&gt;apply_filter -->
<g id="edge2" class="edge">
<title>manual_edit_filter&#45;&gt;apply_filter</title>
<path fill="none" stroke="#000000" d="M144.2463,-362.8314C144.2463,-355.131 144.2463,-345.9743 144.2463,-337.4166"/>
<polygon fill="#000000" stroke="#000000" points="147.7464,-337.4132 144.2463,-327.4133 140.7464,-337.4133 147.7464,-337.4132"/>
</g>
<!-- apply_filter&#45;&gt;recreate_video -->
<g id="edge3" class="edge">
<title>apply_filter&#45;&gt;recreate_video</title>
<path fill="none" stroke="#000000" d="M144.2463,-290.8314C144.2463,-283.131 144.2463,-273.9743 144.2463,-265.4166"/>
<polygon fill="#000000" stroke="#000000" points="147.7464,-265.4132 144.2463,-255.4133 140.7464,-265.4133 147.7464,-265.4132"/>
</g>
<!-- stabilize&#45;&gt;output -->
<g id="edge6" class="edge">
<title>stabilize&#45;&gt;output</title>
<path fill="none" stroke="#000000" d="M133.7746,-143.729C137.8488,-133.3718 142.7484,-120.1013 146.2463,-108 152.2603,-87.1939 157.2347,-63.1736 160.5831,-45.1841"/>
<polygon fill="#000000" stroke="#000000" points="164.0708,-45.5659 162.4074,-35.1024 157.1826,-44.3194 164.0708,-45.5659"/>
</g>
<!-- reflow -->
<g id="node10" class="node">
<title>reflow</title>
<polygon fill="none" stroke="#006400" stroke-dasharray="5,2" points="137.2463,-108 81.2463,-108 81.2463,-72 137.2463,-72 137.2463,-108"/>
<text text-anchor="middle" x="109.2463" y="-86.3" font-family="Times,serif" font-size="14.00" fill="#000000">Reflow</text>
</g>
<!-- stabilize&#45;&gt;reflow -->
<g id="edge7" class="edge">
<title>stabilize&#45;&gt;reflow</title>
<path fill="none" stroke="#000000" stroke-dasharray="5,2" d="M121.9564,-143.8314C120.1383,-136.131 117.9763,-126.9743 115.9557,-118.4166"/>
<polygon fill="#000000" stroke="#000000" points="119.2982,-117.3414 113.5938,-108.4133 112.4855,-118.95 119.2982,-117.3414"/>
</g>
<!-- reflow&#45;&gt;output -->
<g id="edge8" class="edge">
<title>reflow&#45;&gt;output</title>
<path fill="none" stroke="#000000" d="M123.3774,-71.8314C130.8702,-62.1977 140.1358,-50.2849 148.0442,-40.117"/>
<polygon fill="#000000" stroke="#000000" points="150.9226,-42.117 154.2993,-32.0747 145.3971,-37.8194 150.9226,-42.117"/>
</g>
</g>
</svg>
